<svg width="201" height="29" viewBox="0 0 201 29" xmlns="http://www.w3.org/2000/svg">
    <g fill="#FFF" fill-rule="nonzero">
        <path d="M135.915 6.986h2.034V3.825a3.505 3.505 0 0 1 3.85-3.724h4.191v2.973h-3.723a.656.656 0 0 0-.72.751v3.161h3.662v2.975h-3.662v13.172h-3.6V9.961h-2.034l.002-2.975zM147.557.101h3.6V19.19c0 .47.156.657.625.657h2.222v3.286h-3.5c-2.223 0-2.945-1.6-2.945-3.755L147.557.101zm16.273 5.758a8.881 8.881 0 1 1-.006 17.762 8.881 8.881 0 0 1 .005-17.762h.001zm0 14.207a5.33 5.33 0 1 0-5.385-5.317 5.35 5.35 0 0 0 5.385 5.317zm-1.721-7.476a.289.289 0 0 1 .438-.282l3.724 2.126a.3.3 0 0 1 .187.282.333.333 0 0 1-.187.282l-3.73 2.127a.235.235 0 0 1-.156.031.288.288 0 0 1-.282-.313l.006-4.253zm16.179 10.45-4.977-16.681h3.912l3.755 13.582h.095l3.877-13.582h3.725l4.038 13.582h.094l3.6-13.582h3.6l-4.88 16.773h-5.071l-3.191-11.8h-.1l-3.41 11.8h-5.07l.003-.092zM0 6.3h3.15l.063 3.181h.129a6.447 6.447 0 0 1 5.7-3.59c4.661 0 7.338 3.968 7.338 8.818 0 4.787-2.741 8.913-7.369 8.913a5.456 5.456 0 0 1-5.26-3.244h-.123v8.6H.006L0 6.3zm8.157 13.852c2.709 0 4.535-2.173 4.535-5.322 0-2.9-1.515-5.638-4.409-5.638-2.835 0-4.535 2.551-4.535 5.511s1.514 5.449 4.409 5.449zM26.895 5.885c4.661 0 7.59 3.527 7.59 8.346v2.015h-12.5c.284 2.394 2.519 4.031 5.322 4.031a6.481 6.481 0 0 0 4.724-2.2l2.142 2.142a8.879 8.879 0 0 1-7.118 3.37 8.424 8.424 0 0 1-8.63-8.724 8.7 8.7 0 0 1 8.47-8.98zm4.063 7.525a4 4 0 0 0-4.22-4.22 4.739 4.739 0 0 0-4.756 4.22h8.976zm6.395-7.117h3.307V9.38h.094a4.1 4.1 0 0 1 4.409-3.086h1.1v3.618h-2.328c-2.078 0-2.96 1.228-2.96 3.5v9.737h-3.619l-.003-16.856zm11.9 11.37c1.385 1.7 3.086 2.961 5.29 2.961 1.543 0 2.835-.6 2.835-1.89 0-1.355-1.606-2.019-3.5-2.582-2.582-.819-5.763-1.985-5.763-5.2 0-2.772 2.772-5.133 6.267-5.133a7 7 0 0 1 6.708 4.284l-2.635 1.357a4.48 4.48 0 0 0-4.063-2.646c-1.515 0-2.645.788-2.645 1.953 0 1.417 1.386 1.889 3.307 2.487 2.645.819 5.952 1.827 5.952 5.165s-3.181 5.2-6.582 5.2a8.852 8.852 0 0 1-7.432-4.031l2.261-1.925zM71.648 5.822a8.731 8.731 0 0 1 8.786 8.878 8.85 8.85 0 1 1-8.786-8.878zm-.066 14.488a5.454 5.454 0 0 0 5.385-5.61 5.388 5.388 0 1 0-10.77 0 5.453 5.453 0 0 0 5.385 5.61zM82.793 6.3H86.1v3.177h.063c1.134-2.019 2.74-3.654 5.575-3.654 3.685 0 5.7 2.772 5.7 6.677v10.644H93.82V13.066c0-2.3-.85-4.031-3.113-4.031-2.835 0-4.284 2.772-4.284 5.385v8.724h-3.619L82.793 6.3zm24.886 7.022h3.306v-1.07a2.851 2.851 0 0 0-3.086-3.055 5.266 5.266 0 0 0-4.6 3.276l-3.055-1.48a8.176 8.176 0 0 1 7.685-5.1c3.87 0 6.677 2.272 6.677 6.362v7.369c0 .378.062.535.472.535h1.262v2.992h-2.3c-1.449 0-2.425-.851-2.425-2.677v-.819h-.157a6.507 6.507 0 0 1-5.985 3.871c-2.708 0-5.259-1.574-5.259-4.88s3.213-5.323 7.463-5.323l.002-.001zm-1.477 7.21a5.038 5.038 0 0 0 4.787-4.693h-3.113c-2.362 0-4.032.851-4.032 2.582a2.108 2.108 0 0 0 2.362 2.11l-.004.001zM118.866 0h3.618v19.522c0 .441.032.63.567.63h2.277v2.992h-3.507c-2.3 0-2.961-1.48-2.961-3.59L118.866 0z"/>
    </g>
</svg>